<?xml version="1.0" encoding="UTF-8"?>
<svg xmlns:xodm="http://www.corel.com/coreldraw/odm/2003" xmlns="http://www.w3.org/2000/svg" xmlns:xlink="http://www.w3.org/1999/xlink" version="1.1" id="Layer_1" x="0px" y="0px" viewBox="0 0 2500 2500" style="enable-background:new 0 0 2500 2500;" xml:space="preserve">
<style type="text/css">
	.st0{fill-rule:evenodd;clip-rule:evenodd;fill:#3333C9;}
</style>
<g id="Layer_x0020_1">
	<path class="st0" d="M2247,496c-189-242-465-394-773-394C881,102,448,654,448,1253c0,417,276,730,583,730c30,0,57-2,86-7   c-207-153-340-429-340-725c0-473,320-841,696-841c411,0,696,409,696,841c0,321-116,639-315,873c-175,205-401,335-650,375   c0,0,20,2,47,2c689,0,1248-560,1248-1250c0-284-94-545-253-754L2247,496z M2058,1250c0-417-276-730-583-730c-30,0-57,2-86,7   c207,150,337,424,337,722c0,473-320,841-696,841c-411,0-696-409-696-841c0-321,116-639,315-873C824,171,1050,41,1299,1   c0,0-20-2-49-2C561-1,2,559,2,1249c0,284,93,545,253,754c189,242,468,394,773,394c598,2,1031-550,1031-1149L2058,1250z"></path>
</g>
</svg>
